# xmcd
#
# Track frame offsets:
#       150
#       10197
#       24625
#       37915
#       51610
#       61787
#       72840
#       84647
#       103622
#       117770
#       128700
#       139710
#
# Disc length: 2005 seconds
#
# Revision: 1
# Processed by: cddbd v1.5.1PL0 Copyright (c) Steve Scherf et al.
# Submitted via: MusiCat 1.1
#
DISCID=9c07d30c
DTITLE=Various Artist - Ritmos Latinos
DYEAR=1900
DGENRE=
TTITLE0=Fascination
TTITLE1=Lagrimas Y Tristeza
TTITLE2=Adios
TTITLE3=Las Secretarias
TTITLE4=El Cumbanchero
TTITLE5=Donde Estas Corazon
TTITLE6=Dança das Horas
TTITLE7=Perfidia
TTITLE8=Para Vigo Me Voy
TTITLE9=Mambo Com Vitaminas
TTITLE10=Cachita
TTITLE11=Fantasia em Mambo
EXTD=\n\n
EXTT0=
EXTT1=
EXTT2=
EXTT3=
EXTT4=
EXTT5=
EXTT6=
EXTT7=
EXTT8=
EXTT9=
EXTT10=
EXTT11=
PLAYORDER=
